<svg width="24" height="24" viewBox="0 0 24 24" fill="none" xmlns="http://www.w3.org/2000/svg">
<path d="M12 4.62162C14.4031 4.62162 14.6878 4.6308 15.6368 4.6741C16.5143 4.71411 16.9909 4.86073 17.308 4.98398C17.7281 5.14725 18.0279 5.34227 18.3428 5.65719C18.6578 5.97216 18.8528 6.27196 19.0161 6.69206C19.1393 7.00919 19.2859 7.48574 19.326 8.36323C19.3693 9.31224 19.3784 9.59691 19.3784 12C19.3784 14.4031 19.3693 14.6877 19.326 15.6368C19.2859 16.5143 19.1393 16.9908 19.0161 17.308C18.8528 17.728 18.6578 18.0279 18.3429 18.3428C18.0279 18.6577 17.7281 18.8527 17.308 19.016C16.9909 19.1393 16.5143 19.2859 15.6368 19.3259C14.688 19.3692 14.4033 19.3784 12 19.3784C9.59675 19.3784 9.31216 19.3692 8.36325 19.3259C7.48575 19.2859 7.00921 19.1393 6.69207 19.016C6.27197 18.8527 5.97216 18.6577 5.65724 18.3428C5.34232 18.0279 5.14726 17.728 4.98399 17.308C4.86073 16.9908 4.71412 16.5143 4.6741 15.6368C4.63081 14.6877 4.62163 14.4031 4.62163 12C4.62163 9.59691 4.63081 9.31224 4.6741 8.36323C4.71412 7.48574 4.86073 7.00919 4.98399 6.69206C5.14726 6.27196 5.34228 5.97216 5.65724 5.65723C5.97216 5.34227 6.27197 5.14725 6.69207 4.98398C7.00921 4.86073 7.48575 4.71411 8.36325 4.6741C9.31227 4.6308 9.59693 4.62162 12 4.62162ZM12 3C9.55578 3 9.24928 3.01036 8.28933 3.05416C7.33139 3.09785 6.67714 3.25001 6.10467 3.47247C5.51284 3.70247 5.01093 4.01021 4.51055 4.51055C4.01022 5.01092 3.70247 5.51283 3.47251 6.10466C3.25001 6.67713 3.09785 7.33137 3.05416 8.28931C3.01036 9.24926 3 9.55575 3 12C3 14.4443 3.01036 14.7507 3.05416 15.7107C3.09785 16.6687 3.25001 17.3229 3.47251 17.8954C3.70247 18.4872 4.01022 18.9891 4.51055 19.4895C5.01093 19.9898 5.51284 20.2975 6.10467 20.5275C6.67714 20.75 7.33139 20.9021 8.28933 20.9458C9.24928 20.9896 9.55578 21 12 21C14.4443 21 14.7508 20.9896 15.7108 20.9458C16.6687 20.9021 17.323 20.75 17.8954 20.5275C18.4873 20.2975 18.9892 19.9898 19.4895 19.4895C19.9898 18.9891 20.2976 18.4872 20.5276 17.8954C20.7501 17.3229 20.9022 16.6687 20.9459 15.7107C20.9897 14.7507 21.0001 14.4443 21.0001 12C21.0001 9.55575 20.9897 9.24926 20.9459 8.28931C20.9022 7.33137 20.7501 6.67713 20.5276 6.10466C20.2976 5.51283 19.9898 5.01092 19.4895 4.51055C18.9892 4.01021 18.4873 3.70247 17.8954 3.47247C17.323 3.25001 16.6687 3.09785 15.7108 3.05416C14.7508 3.01036 14.4443 3 12 3Z" fill="black"/>
<path d="M12.0045 7.38281C9.45197 7.38281 7.38281 9.45197 7.38281 12.0044C7.38281 14.5569 9.45197 16.626 12.0045 16.626C14.5569 16.626 16.6261 14.5569 16.6261 12.0044C16.6261 9.45197 14.5569 7.38281 12.0045 7.38281ZM12.0045 15.0045C10.3476 15.0045 9.00444 13.6613 9.00444 12.0044C9.00444 10.3476 10.3476 9.00443 12.0045 9.00443C13.6613 9.00443 15.0044 10.3476 15.0044 12.0044C15.0044 13.6613 13.6613 15.0045 12.0045 15.0045Z" fill="black"/>
<path d="M17.8866 7.19721C17.8866 7.79365 17.403 8.2772 16.8065 8.2772C16.2101 8.2772 15.7266 7.79365 15.7266 7.19721C15.7266 6.60074 16.2101 6.11719 16.8065 6.11719C17.403 6.11719 17.8866 6.60074 17.8866 7.19721Z" fill="black"/>
</svg>
