<svg width="39" height="24" viewBox="0 0 39 24" fill="none" xmlns="http://www.w3.org/2000/svg">
<path d="M31.44 11.94L35.08 18.73H38.66L31.44 5.28003L24.22 18.73H27.8L31.44 11.94Z" fill="black"/>
<path d="M19.5899 15.58L19.5999 5.26001H16.4399V18.73H22.5299L24.2199 15.58H19.5899Z" fill="black"/>
<path d="M7.57009 4.78004C6.14169 4.77806 4.74479 5.19982 3.55615 5.99196C2.36752 6.7841 1.44055 7.91102 0.892555 9.23013C0.344557 10.5492 0.200149 12.0012 0.477604 13.4024C0.755059 14.8036 1.44191 16.0911 2.45124 17.1018C3.46058 18.1125 4.74704 18.8012 6.14786 19.0806C7.54867 19.36 9.00089 19.2176 10.3208 18.6714C11.6406 18.1252 12.7688 17.1998 13.5626 16.0123C14.3564 14.8248 14.7801 13.4284 14.7801 12C14.7801 10.0869 14.0208 8.25198 12.6689 6.89826C11.3171 5.54453 9.48322 4.78269 7.57009 4.78004ZM7.57009 15.89C6.8003 15.892 6.04723 15.6656 5.40621 15.2393C4.76518 14.8131 4.26504 14.2062 3.96908 13.4956C3.67312 12.785 3.59466 12.0025 3.74362 11.2473C3.89259 10.492 4.26228 9.79797 4.80591 9.25295C5.34953 8.70792 6.04265 8.33644 6.7975 8.18553C7.55236 8.03462 8.33502 8.11107 9.04641 8.4052C9.7578 8.69933 10.3659 9.19791 10.7938 9.83783C11.2217 10.4778 11.4501 11.2302 11.4501 12C11.4474 13.0326 11.0354 14.0221 10.3043 14.7513C9.57317 15.4805 8.58271 15.89 7.55009 15.89H7.57009Z" fill="black"/>
</svg>
