<svg width="24" height="24" viewBox="0 0 24 24" fill="none" xmlns="http://www.w3.org/2000/svg">
<path fill-rule="evenodd" clip-rule="evenodd" d="M22 5.79717C21.2647 6.12381 20.4734 6.34379 19.6435 6.44312C20.4907 5.93515 21.1414 5.13121 21.4473 4.17327C20.6554 4.6439 19.7762 4.98455 18.8422 5.16921C18.0936 4.37192 17.0263 3.87329 15.8471 3.87329C13.5813 3.87329 11.744 5.7105 11.744 7.97635C11.744 8.29766 11.7807 8.61097 11.8507 8.91162C8.44024 8.74097 5.41711 7.10707 3.39324 4.62457C3.03993 5.23053 2.83794 5.93516 2.83794 6.68711C2.83794 8.11035 3.56123 9.36627 4.66316 10.1022C3.98987 10.0809 3.35791 9.89622 2.80395 9.58892V9.64024C2.80395 11.6288 4.21918 13.2866 6.09506 13.6646C5.75108 13.758 5.38844 13.8086 5.01447 13.8086C4.74982 13.8086 4.4925 13.7826 4.24185 13.7346C4.76382 15.3645 6.27972 16.5511 8.07492 16.5845C6.67102 17.6844 4.90181 18.341 2.97927 18.341C2.64729 18.341 2.32065 18.3216 2 18.283C3.81587 19.447 5.9724 20.1269 8.28958 20.1269C15.8364 20.1269 19.9635 13.8746 19.9635 8.45298C19.9635 8.27499 19.9602 8.09768 19.9515 7.92236C20.7541 7.3424 21.45 6.61977 22 5.79717Z" fill="black"/>
</svg>
