<svg width="24" height="24" viewBox="0 0 24 24" fill="none" xmlns="http://www.w3.org/2000/svg">
<path fill-rule="evenodd" clip-rule="evenodd" d="M20.9096 6.07183C21.2201 6.38224 21.4439 6.76856 21.5586 7.19231C22.2192 9.85 22.0665 14.0474 21.5715 16.8077C21.4568 17.2314 21.233 17.6177 20.9224 17.9281C20.6119 18.2386 20.2253 18.4622 19.8014 18.5769C18.2494 19 12.0027 19 12.0027 19C12.0027 19 5.75609 19 4.20405 18.5769C3.7801 18.4622 3.39359 18.2386 3.08303 17.9281C2.77247 17.6177 2.54868 17.2314 2.43396 16.8077C1.76954 14.1615 1.95168 9.96154 2.42114 7.20513C2.53586 6.78138 2.75964 6.39506 3.07021 6.08465C3.38077 5.77424 3.76727 5.55056 4.19123 5.4359C5.74327 5.01282 11.9899 5 11.9899 5C11.9899 5 18.2365 5 19.7886 5.42308C20.2125 5.53774 20.599 5.76142 20.9096 6.07183ZM15.1838 12L10.0018 15V8.99999L15.1838 12Z" fill="black"/>
</svg>
